<svg width="24" height="27" viewBox="0 0 24 27" fill="none" xmlns="http://www.w3.org/2000/svg">
<path fill-rule="evenodd" clip-rule="evenodd" d="M6.22559 6.66667V5.33333C6.22559 3.91885 6.78749 2.56229 7.78768 1.5621C8.78788 0.561903 10.1444 0 11.5589 0C12.9734 0 14.33 0.561903 15.3302 1.5621C16.3304 2.56229 16.8923 3.91885 16.8923 5.33333V6.66667H19.119C19.6957 6.66662 20.2655 6.79127 20.7895 7.03207C21.3136 7.27289 21.7794 7.62419 22.1549 8.06187C22.5305 8.49957 22.807 9.01329 22.9654 9.56784C23.1238 10.1224 23.1605 10.7048 23.0728 11.2749L21.3995 22.1442C21.2057 23.4036 20.5675 24.552 19.6004 25.3815C18.6332 26.2111 17.4007 26.6669 16.1266 26.6667H6.99092C5.71697 26.6666 4.48511 26.2105 3.51826 25.381C2.55147 24.5514 1.91349 23.4031 1.71981 22.144L0.0464783 11.2747C-0.0411854 10.7046 -0.00454465 10.1224 0.153889 9.56784C0.312322 9.01329 0.588799 8.49956 0.964369 8.06187C1.33994 7.62419 1.80571 7.27289 2.32976 7.03207C2.85377 6.79127 3.42364 6.66662 4.00032 6.66667H6.22559ZM9.6733 3.44772C10.1734 2.94762 10.8517 2.66667 11.5589 2.66667C12.2662 2.66667 12.9444 2.94762 13.4445 3.44772C13.9446 3.94781 14.2256 4.62609 14.2256 5.33333V6.66667H8.89225V5.33333C8.89225 4.62609 9.1732 3.94781 9.6733 3.44772Z" fill="#001838"/>
</svg>
