<svg width="40" height="40" viewBox="0 0 40 40" fill="none" xmlns="http://www.w3.org/2000/svg">
<path fill-rule="evenodd" clip-rule="evenodd" d="M11.6667 20.0002C11.2247 20.0002 10.8007 20.1758 10.4882 20.4883C10.1756 20.8009 10 21.2248 10 21.6668V31.6668C10 32.1089 10.1756 32.5328 10.4882 32.8453C10.8007 33.1579 11.2247 33.3335 11.6667 33.3335H28.3334C28.7754 33.3335 29.1993 33.1579 29.5119 32.8453C29.8244 32.5328 30 32.1089 30 31.6668V21.6668C30 21.2248 29.8244 20.8009 29.5119 20.4883C29.1993 20.1758 28.7754 20.0002 28.3334 20.0002H11.6667ZM8.13115 18.1313C9.06883 17.1936 10.3406 16.6668 11.6667 16.6668H28.3334C29.6594 16.6668 30.9312 17.1936 31.8689 18.1313C32.8066 19.069 33.3334 20.3407 33.3334 21.6668V31.6668C33.3334 32.9929 32.8066 34.2647 31.8689 35.2024C30.9312 36.14 29.6594 36.6668 28.3334 36.6668H11.6667C10.3406 36.6668 9.06883 36.14 8.13115 35.2024C7.19347 34.2647 6.66669 32.9929 6.66669 31.6668V21.6668C6.66669 20.3407 7.19347 19.069 8.13115 18.1313Z" fill="#001838"/>
<path fill-rule="evenodd" clip-rule="evenodd" d="M17.643 24.3098C18.2681 23.6847 19.116 23.3335 20 23.3335C20.8841 23.3335 21.7319 23.6847 22.357 24.3098C22.9822 24.9349 23.3334 25.7828 23.3334 26.6668C23.3334 27.5509 22.9822 28.3987 22.357 29.0239C21.7319 29.649 20.8841 30.0002 20 30.0002C19.116 30.0002 18.2681 29.649 17.643 29.0239C17.0179 28.3987 16.6667 27.5509 16.6667 26.6668C16.6667 25.7828 17.0179 24.9349 17.643 24.3098Z" fill="#001838"/>
<path fill-rule="evenodd" clip-rule="evenodd" d="M20 6.66683C18.6739 6.66683 17.4022 7.19361 16.4645 8.1313C15.5268 9.06898 15 10.3407 15 11.6668V18.3335C15 19.254 14.2538 20.0002 13.3334 20.0002C12.4129 20.0002 11.6667 19.254 11.6667 18.3335V11.6668C11.6667 9.45669 12.5447 7.33708 14.1075 5.77427C15.6703 4.21147 17.7899 3.3335 20 3.3335C22.2102 3.3335 24.3298 4.21147 25.8926 5.77427C27.4554 7.33708 28.3334 9.45669 28.3334 11.6668V18.3335C28.3334 19.254 27.5872 20.0002 26.6667 20.0002C25.7462 20.0002 25 19.254 25 18.3335V11.6668C25 10.3407 24.4732 9.06898 23.5356 8.1313C22.5979 7.19361 21.3261 6.66683 20 6.66683Z" fill="#001838"/>
</svg>
