<svg width="48" height="48" viewBox="0 0 48 48" fill="none" xmlns="http://www.w3.org/2000/svg">
<g clip-path="url(#clip0_6188_143882)">
<path d="M24 0C10.7712 0 0 10.7616 0 24C0 37.2288 10.7712 48 24 48C37.2384 48 48 37.2288 48 24C48 10.7616 37.2384 0 24 0Z" fill="#00285D"/>
<path d="M45.5041 23.9962C45.5041 12.121 35.8753 2.49219 24.0001 2.49219C12.1249 2.49219 2.49609 12.121 2.49609 23.9962C2.49609 35.8714 12.1249 45.5002 24.0001 45.5002C35.8753 45.5002 45.5041 35.8714 45.5041 23.9962Z" fill="white"/>
<path d="M37.6897 24.0021C37.6897 16.4469 31.5553 10.3125 24.0001 10.3125C16.4449 10.3125 10.3105 16.4373 10.3105 24.0021C10.3105 31.5669 16.4353 37.6917 24.0001 37.6917C31.5553 37.6917 37.6897 31.5669 37.6897 24.0021Z" fill="#6CADDE"/>
<path d="M24 38.7754C15.8592 38.7754 9.22559 32.1514 9.22559 24.001C9.22559 15.8602 15.8496 9.22656 24 9.22656C32.1504 9.22656 38.7744 15.8506 38.7744 24.001C38.7744 32.1418 32.1408 38.7754 24 38.7754ZM24 10.0522C16.3104 10.0522 10.0512 16.3114 10.0512 24.001C10.0512 31.6906 16.3104 37.9498 24 37.9498C31.6896 37.9498 37.9488 31.6906 37.9488 24.001C37.9488 16.3114 31.6896 10.0522 24 10.0522Z" fill="#00285D"/>
<path d="M23.9993 47.0182C11.3081 47.0182 0.978516 36.6886 0.978516 23.9974C0.978516 11.3062 11.3081 0.976562 23.9993 0.976562C36.6905 0.976562 47.0201 11.3062 47.0201 23.9974C47.0105 36.6886 36.6905 47.0182 23.9993 47.0182ZM23.9993 1.47576C11.5865 1.47576 1.48732 11.5846 1.48732 23.9974C1.48732 36.4102 11.5865 46.519 23.9993 46.519C36.4121 46.519 46.5209 36.4198 46.5209 23.9974C46.5209 11.5846 36.4121 1.47576 23.9993 1.47576Z" fill="#6CADDE"/>
<path d="M4.79022 23.4715L4.39662 23.5675L4.29102 23.1643L4.93422 22.9723H5.27022V25.2187H4.79022V23.4715ZM5.83662 24.6139C5.83662 24.3355 5.96142 24.1819 6.20142 24.0667C6.02862 23.9611 5.91342 23.8171 5.91342 23.5771V23.5675C5.91342 23.2219 6.23022 22.9531 6.70062 22.9531C7.17102 22.9531 7.48782 23.2219 7.48782 23.5675V23.5771C7.48782 23.8171 7.37262 23.9611 7.19982 24.0667C7.43022 24.1819 7.55502 24.3259 7.55502 24.5947V24.6043C7.55502 25.0171 7.19022 25.2571 6.69102 25.2571C6.19182 25.2571 5.83662 24.9979 5.83662 24.6139ZM7.08462 24.5755C7.08462 24.3931 6.92142 24.2971 6.70062 24.2971C6.47982 24.2971 6.31662 24.4027 6.31662 24.5755V24.5851C6.31662 24.7387 6.46062 24.8635 6.70062 24.8635C6.94062 24.8539 7.08462 24.7291 7.08462 24.5755ZM7.01742 23.6347C7.01742 23.4907 6.90222 23.3659 6.70062 23.3659C6.49902 23.3659 6.38382 23.4907 6.38382 23.6251V23.6347C6.38382 23.7883 6.50862 23.9131 6.70062 23.9131C6.89262 23.9035 7.01742 23.7883 7.01742 23.6347ZM41.2222 24.3067C41.107 24.4027 40.963 24.4603 40.771 24.4603C40.291 24.4603 39.9742 24.1915 39.9742 23.7403V23.7307C39.9742 23.2795 40.3198 22.9531 40.8286 22.9531C41.1262 22.9531 41.299 23.0299 41.4718 23.1931C41.635 23.3563 41.731 23.5963 41.731 24.0379V24.0475C41.731 24.7675 41.395 25.2667 40.7614 25.2667C40.435 25.2667 40.2142 25.1611 40.0318 24.9979L40.291 24.6235C40.4542 24.7579 40.5886 24.8155 40.7806 24.8155C41.107 24.8155 41.203 24.4987 41.2222 24.3067ZM41.2318 23.7211C41.2318 23.5195 41.0878 23.3755 40.8382 23.3755C40.5982 23.3755 40.4542 23.5195 40.4542 23.7115V23.7211C40.4542 23.9227 40.5982 24.0571 40.8478 24.0571C41.0878 24.0571 41.2318 23.9131 41.2318 23.7211ZM43.2958 24.7387H42.2014L42.1246 24.3931L43.3438 22.9723H43.7566V24.3355H44.0542V24.7291H43.7566V25.2091H43.2958V24.7387ZM43.2958 24.3451V23.6539L42.7006 24.3451H43.2958Z" fill="#6CADDE"/>
<path d="M23.9996 37.9445C16.31 37.9445 10.0508 31.6853 10.0508 23.9957C10.0508 16.3061 16.31 10.0469 23.9996 10.0469C31.6892 10.0469 37.9484 16.3061 37.9484 23.9957C37.9484 31.6853 31.6892 37.9445 23.9996 37.9445ZM23.9996 10.5653C16.598 10.5653 10.5692 16.5941 10.5692 23.9957C10.5692 31.4069 16.598 37.4261 23.9996 37.4261C31.4108 37.4261 37.4396 31.3973 37.4396 23.9957C37.43 16.5845 31.4108 10.5653 23.9996 10.5653Z" fill="white"/>
<path fill-rule="evenodd" clip-rule="evenodd" d="M23.7409 11.9922C16.8577 11.9922 12.8833 12.8946 12.8833 12.8946C12.8833 12.8946 11.2993 18.9234 12.2017 26.661C12.5761 29.9058 15.2161 36.885 23.9617 39.2658C32.7073 36.885 35.3377 29.9058 35.7217 26.661C36.6241 18.933 35.0401 12.8946 35.0401 12.8946C35.0401 12.8946 31.0657 11.9922 24.1825 11.9922H23.7409Z" fill="#00285D"/>
<path fill-rule="evenodd" clip-rule="evenodd" d="M34.5214 24.8516C34.4446 27.194 34.0798 34.2116 23.9614 38.0612C13.9198 34.3172 13.4014 27.0596 13.4014 24.8516H34.5214Z" fill="#96C1E7"/>
<path fill-rule="evenodd" clip-rule="evenodd" d="M34.2142 24.4682C34.483 18.6602 33.5038 13.9466 33.5038 13.9466C33.5038 13.9466 29.731 13.2266 23.9711 13.2266C18.2111 13.2266 14.3711 14.0234 14.3711 14.0234C14.3711 14.0234 13.3247 18.7562 13.6127 24.4682H34.2142Z" fill="white"/>
<path d="M24.2785 37.8633L13.6033 24.9609C13.2097 27.6201 15.3697 35.4537 24.2785 37.8633Z" fill="#6CADDF"/>
<path d="M16.7812 24.875L26.6597 36.7886C27.6581 36.3086 28.3877 35.8478 29.0981 35.2814L20.4676 24.875H16.7812ZM23.6452 24.8846L30.9412 33.6878C31.6612 32.8718 32.2661 32.1422 32.6981 31.3646L27.3317 24.8846H23.6452ZM34.3397 24.8846L30.6917 24.875L33.7541 28.571C34.2821 27.4286 34.3397 25.5182 34.3397 24.8846Z" fill="#6CADDE"/>
<path d="M28.272 29.7131C28.2432 29.6267 28.176 29.5595 28.0896 29.5307L27.4848 29.3195C27.4272 29.3003 27.3792 29.3003 27.3216 29.3195C27.2736 29.1083 27.1488 28.9163 26.976 28.7915C26.9568 28.7723 26.928 28.7627 26.9088 28.7435C26.8704 28.7147 26.8224 28.6955 26.7744 28.6763L26.544 28.5899C26.3616 28.5323 26.1888 28.4747 25.968 28.3115C25.7568 28.1579 25.6608 28.0235 25.5744 27.8891C25.5552 27.8603 25.5264 27.8219 25.5072 27.7931C25.4496 27.6971 25.3728 27.6203 25.2768 27.5531C25.1232 27.4379 24.9408 27.3803 24.7488 27.3803C24.7104 27.3803 24.6624 27.3899 24.624 27.3995V27.3899C24.6336 27.3131 24.6144 27.2363 24.576 27.1787L24.2016 26.6699C24.144 26.5931 24.0672 26.5547 23.9712 26.5547C23.8848 26.5547 23.7984 26.5931 23.7408 26.6603L23.3472 27.1691C23.2992 27.2363 23.28 27.3131 23.2896 27.3899C23.2608 27.3899 23.2224 27.3803 23.1936 27.3803C23.0016 27.3803 22.8192 27.4379 22.6656 27.5435C22.6464 27.5627 22.6272 27.5723 22.608 27.5915C22.5696 27.6203 22.5312 27.6587 22.5024 27.6971C22.4448 27.7643 22.3968 27.8315 22.3488 27.8891C22.2336 28.0427 22.128 28.1867 21.9072 28.3499C21.696 28.5035 21.5424 28.5515 21.3792 28.5995C21.3408 28.6091 21.3024 28.6187 21.2736 28.6283C21.168 28.6571 21.0624 28.7051 20.976 28.7723C20.7936 28.9067 20.6688 29.0987 20.6304 29.3195C20.5632 29.3003 20.5056 29.2907 20.4384 29.3099L19.8336 29.5115C19.7472 29.5403 19.68 29.6075 19.6512 29.6939C19.6224 29.7803 19.6416 29.8667 19.6896 29.9435L20.0544 30.4715C20.0928 30.5291 20.16 30.5675 20.2272 30.5867C20.1312 30.7883 20.112 31.0283 20.1792 31.2395C20.1888 31.2683 20.1984 31.2875 20.208 31.3163C20.2272 31.3643 20.2464 31.4027 20.2752 31.4507C20.3232 31.5275 20.3712 31.5851 20.4192 31.6523C20.5344 31.8059 20.64 31.9499 20.7264 32.2091C20.8032 32.4491 20.8032 32.6219 20.7936 32.7755V32.8907C20.784 33.0059 20.8032 33.1115 20.832 33.2171C20.8992 33.4283 21.0528 33.6011 21.2352 33.7067C21.216 33.7451 21.1968 33.7931 21.1968 33.8411V34.4747C21.1968 34.5611 21.2448 34.6475 21.312 34.7051C21.3792 34.7531 21.4752 34.7723 21.5616 34.7435L22.176 34.5611C22.2336 34.5419 22.272 34.5035 22.3104 34.4651C22.4928 34.6379 22.752 34.7243 23.0016 34.7051C23.0496 34.7051 23.0976 34.6955 23.1552 34.6859C23.2416 34.6667 23.3184 34.6379 23.3952 34.6187C23.5776 34.5611 23.7504 34.5035 24.0288 34.5035C24.288 34.5035 24.4416 34.5611 24.5952 34.6091C24.6336 34.6187 24.6624 34.6379 24.7008 34.6475C24.8064 34.6859 24.9216 34.7147 25.0272 34.7147C25.2576 34.7147 25.4688 34.6283 25.6416 34.4651C25.68 34.5035 25.7184 34.5419 25.7664 34.5611L26.3712 34.7531C26.4576 34.7819 26.5536 34.7627 26.6208 34.7147C26.6976 34.6667 26.736 34.5803 26.736 34.4939L26.7552 33.8603C26.7552 33.8123 26.736 33.7643 26.7168 33.7163C26.8992 33.6107 27.0528 33.4379 27.12 33.2267C27.1296 33.1979 27.1392 33.1787 27.1392 33.1499L27.168 33.0059C27.1776 32.9195 27.1776 32.8427 27.1776 32.7563C27.1776 32.5643 27.1776 32.3915 27.264 32.1227C27.3408 31.8827 27.4464 31.7483 27.5424 31.6235C27.5712 31.5947 27.5904 31.5659 27.6096 31.5371C27.6864 31.4507 27.7344 31.3547 27.7728 31.2491C27.8496 31.0283 27.8208 30.7787 27.7152 30.5771C27.7728 30.5579 27.8208 30.5291 27.8496 30.4811L28.2144 29.9627C28.2816 29.8955 28.3008 29.7995 28.272 29.7131Z" fill="#00285D"/>
<path d="M23.625 31.074C23.625 30.882 23.7882 30.7188 23.9802 30.7188C24.1818 30.7188 24.3354 30.882 24.3354 31.074C24.3354 31.266 24.1722 31.4291 23.9802 31.4291C23.7882 31.4291 23.625 31.2756 23.625 31.074Z" fill="#FFC758"/>
<path d="M23.981 28.0513C23.9234 27.8305 23.789 27.6481 23.6066 27.5425L23.981 27.0625L24.3362 27.5425C24.1634 27.6673 24.0386 27.8401 23.981 28.0513ZM21.1106 30.1537C20.9186 30.0289 20.7938 29.8657 20.7266 29.6641L20.1602 29.8561L20.5058 30.3553C20.6594 30.2113 20.8802 30.1441 21.1106 30.1537ZM22.2242 33.4657C22.0514 33.6001 21.8402 33.6769 21.629 33.6769L21.6386 34.2721L22.2242 34.0993C22.1378 33.9073 22.1474 33.6769 22.2242 33.4657ZM25.7378 33.4753C25.8146 33.6865 25.8242 33.8977 25.757 34.0993L26.3234 34.2817L26.3426 33.6769C26.141 33.6865 25.9202 33.6097 25.7378 33.4753ZM26.8226 30.1537C27.053 30.1441 27.2546 30.2017 27.4274 30.3265L27.773 29.8465L27.197 29.6449C27.1586 29.8465 27.0146 30.0289 26.8226 30.1537ZM23.2514 33.4849C22.9826 33.4849 22.7714 33.2641 22.7714 33.0049C22.7714 32.9665 22.733 32.9569 22.7138 32.9761C22.541 33.1873 22.4066 33.3697 22.397 33.6001C22.3874 33.9361 22.6658 34.2049 23.0018 34.2049H23.069C23.0978 34.2049 23.1362 34.2049 23.1746 34.1953C23.4146 34.1377 23.6162 34.0225 24.0194 34.0225C24.3554 34.0225 24.5378 34.1089 24.7106 34.1665C24.7778 34.1953 24.8546 34.2145 24.941 34.2145C25.277 34.2145 25.5554 33.9457 25.5458 33.6097C25.5458 33.3793 25.4018 33.1969 25.229 32.9857C25.2098 32.9665 25.181 32.9761 25.181 33.0145C25.181 33.2737 24.9602 33.4945 24.701 33.4945C24.4994 33.4945 24.2402 33.3217 23.9906 33.3217C23.7698 33.3121 23.453 33.4849 23.2514 33.4849ZM22.9346 32.8225C22.9346 33.0433 23.117 33.2257 23.3378 33.2257C23.357 33.2257 23.3858 33.2257 23.4146 33.2161C23.4242 33.2161 23.4338 33.2065 23.4434 33.2065H23.4626C23.597 33.1681 23.7314 33.1009 23.9714 33.1009C24.221 33.1009 24.3362 33.1681 24.4706 33.2065C24.5186 33.2257 24.5666 33.2353 24.6146 33.2353C24.8354 33.2353 25.0178 33.0529 25.0178 32.8321C25.0178 32.7745 25.0082 32.7169 24.9794 32.6689L24.9506 32.6113C24.9506 32.6113 24.269 31.6897 24.2498 31.6609C24.221 31.6225 24.173 31.6321 24.1442 31.6417C24.1154 31.6513 24.029 31.6705 23.9714 31.6705C23.9138 31.6705 23.8466 31.6609 23.7986 31.6417C23.7506 31.6225 23.7218 31.6129 23.693 31.6609C23.6642 31.6993 23.1746 32.3617 23.021 32.5729C22.973 32.6401 22.9346 32.7265 22.9346 32.8225ZM26.0738 32.5153C25.997 32.7649 25.7186 32.9089 25.469 32.8225C25.4306 32.8129 25.4114 32.8321 25.4306 32.8609C25.5842 33.0913 25.7186 33.2737 25.9298 33.3505C26.2466 33.4561 26.5922 33.2833 26.6978 32.9665C26.7074 32.9473 26.7074 32.9281 26.717 32.9089C26.7266 32.8801 26.7362 32.8513 26.7362 32.8129C26.7554 32.5633 26.7074 32.3425 26.8322 31.9585C26.9378 31.6417 27.0818 31.4977 27.1874 31.3441C27.2354 31.2865 27.2738 31.2193 27.3026 31.1425C27.4082 30.8257 27.2354 30.4801 26.909 30.3841C26.6882 30.3169 26.4674 30.3937 26.2082 30.4897C26.1794 30.4993 26.189 30.5281 26.2178 30.5377C26.477 30.6241 26.6114 30.8929 26.5346 31.1425C26.4674 31.3345 26.2274 31.5265 26.1506 31.7665C26.0642 31.9777 26.1314 32.3329 26.0738 32.5153ZM25.3346 32.6209C25.5458 32.6881 25.7762 32.5729 25.8434 32.3617C25.853 32.3425 25.8626 32.3137 25.8626 32.2849V32.2369C25.8626 32.0929 25.8434 31.9489 25.9106 31.7185C25.9874 31.4785 26.093 31.3921 26.1698 31.2769C26.1986 31.2385 26.2178 31.2001 26.237 31.1521C26.3042 30.9409 26.189 30.7201 25.9778 30.6433C25.9202 30.6241 25.8626 30.6241 25.8146 30.6241C25.7954 30.6241 25.7666 30.6337 25.7474 30.6337C25.7474 30.6337 24.653 30.9889 24.6146 30.9985C24.5666 31.0177 24.5666 31.0657 24.5666 31.0945C24.5666 31.1233 24.557 31.2097 24.5474 31.2673C24.5282 31.3153 24.4994 31.3825 24.461 31.4113C24.4322 31.4497 24.4034 31.4785 24.4418 31.5169C24.4706 31.5553 24.9506 32.2177 25.1138 32.4289C25.1714 32.5249 25.2386 32.5825 25.3346 32.6209ZM25.997 29.5489C26.2178 29.7025 26.2658 30.0001 26.1026 30.2209C26.0834 30.2497 26.1026 30.2785 26.1314 30.2689C26.4002 30.2017 26.621 30.1249 26.7554 29.9425C26.957 29.6737 26.8898 29.2993 26.621 29.0977C26.6018 29.0881 26.5826 29.0785 26.5634 29.0593C26.5346 29.0401 26.5154 29.0305 26.477 29.0113C26.2466 28.9153 26.0162 28.8961 25.6898 28.6561C25.421 28.4641 25.325 28.2817 25.2098 28.1377C25.1714 28.0705 25.1138 28.0129 25.0466 27.9649C24.7778 27.7729 24.3938 27.8305 24.2018 28.0993C24.0674 28.2913 24.0674 28.5217 24.0866 28.7905C24.0866 28.8193 24.1154 28.8193 24.1346 28.8001C24.2882 28.5889 24.5954 28.5409 24.8066 28.6945C24.9698 28.8097 25.0754 29.0977 25.2866 29.2513C25.4786 29.3857 25.8338 29.4337 25.997 29.5489ZM25.8626 30.2689C25.997 30.0865 25.9586 29.8369 25.7762 29.7121C25.757 29.6929 25.7378 29.6833 25.709 29.6737C25.6994 29.6737 25.6898 29.6641 25.6802 29.6641C25.6706 29.6641 25.6706 29.6641 25.661 29.6545C25.5266 29.6065 25.373 29.5873 25.181 29.4433C24.9794 29.2993 24.9218 29.1745 24.8354 29.0689C24.8066 29.0305 24.7778 28.9921 24.7394 28.9633C24.557 28.8289 24.3074 28.8769 24.173 29.0497C24.1346 29.0977 24.1154 29.1457 24.1058 29.2033C24.0962 29.2225 24.0962 29.2513 24.0962 29.2705C24.0962 29.2705 24.0962 30.4129 24.1058 30.4513C24.1058 30.5089 24.1538 30.5185 24.1826 30.5281C24.2114 30.5377 24.2978 30.5665 24.3362 30.6049C24.3842 30.6337 24.4322 30.6913 24.4514 30.7297C24.4706 30.7681 24.4994 30.7969 24.5474 30.7777C24.5858 30.7585 25.373 30.5089 25.6322 30.4321C25.7282 30.4033 25.805 30.3457 25.8626 30.2689ZM23.1362 28.7041C23.357 28.5505 23.6546 28.5985 23.8082 28.8097C23.8274 28.8385 23.8658 28.8289 23.8658 28.8001C23.8754 28.5313 23.8754 28.3009 23.7506 28.1089C23.5586 27.8401 23.1746 27.7825 22.9058 27.9745C22.8866 27.9841 22.8674 28.0033 22.8578 28.0129C22.8386 28.0321 22.8098 28.0513 22.781 28.0801C22.6178 28.2625 22.5314 28.4833 22.1954 28.7137C21.9266 28.9057 21.725 28.9441 21.5426 29.0017C21.4658 29.0209 21.3986 29.0497 21.3314 29.0977C21.0626 29.2897 20.9954 29.6737 21.197 29.9425C21.341 30.1249 21.5618 30.1921 21.821 30.2689C21.8498 30.2785 21.8594 30.2497 21.8402 30.2209C21.6866 30.0097 21.7346 29.7025 21.9458 29.5489C22.109 29.4337 22.4162 29.4241 22.6274 29.2705C22.8194 29.1457 22.973 28.8193 23.1362 28.7041ZM23.789 29.0497C23.6546 28.8673 23.405 28.8289 23.2226 28.9633C23.2034 28.9729 23.1842 28.9921 23.165 29.0113C23.1554 29.0209 23.1554 29.0305 23.1458 29.0401C23.1458 29.0497 23.1362 29.0497 23.1362 29.0497C23.0498 29.1649 22.9826 29.2993 22.7906 29.4337C22.589 29.5777 22.4546 29.5873 22.3202 29.6449C22.2722 29.6545 22.2338 29.6737 22.1858 29.7025C22.0034 29.8369 21.965 30.0865 22.0994 30.2593C22.1378 30.3073 22.1762 30.3457 22.2242 30.3745L22.2818 30.4033C22.2818 30.4033 23.3858 30.7585 23.4146 30.7681C23.4722 30.7873 23.4914 30.7393 23.5106 30.7201C23.5298 30.6913 23.5874 30.6337 23.6258 30.5953C23.6738 30.5665 23.7314 30.5377 23.7794 30.5185C23.8274 30.5089 23.8658 30.4993 23.8562 30.4417V29.3185C23.8658 29.2321 23.8466 29.1361 23.789 29.0497ZM21.4466 31.1521C21.3602 30.9025 21.5042 30.6337 21.7538 30.5473C21.7922 30.5377 21.7922 30.4993 21.7634 30.4897C21.5042 30.3937 21.2834 30.3169 21.0626 30.3841C20.7362 30.4801 20.5634 30.8257 20.669 31.1425C20.6786 31.1617 20.6786 31.1809 20.6882 31.2001C20.6978 31.2289 20.7074 31.2577 20.7266 31.2865C20.8514 31.4977 21.0338 31.6513 21.1586 32.0353C21.2642 32.3521 21.2354 32.5537 21.2354 32.7361C21.2258 32.8129 21.2354 32.8897 21.2642 32.9665C21.3698 33.2833 21.7154 33.4657 22.0322 33.3505C22.253 33.2737 22.3874 33.0913 22.5314 32.8609C22.5506 32.8417 22.5218 32.8225 22.493 32.8321C22.2434 32.9185 21.965 32.7745 21.8882 32.5249C21.821 32.3329 21.9074 32.0353 21.8306 31.7953C21.773 31.5841 21.5138 31.3441 21.4466 31.1521ZM21.9842 30.6433C21.773 30.7105 21.6578 30.9409 21.725 31.1521C21.725 31.1713 21.7442 31.2001 21.7538 31.2289C21.7634 31.2385 21.7634 31.2481 21.773 31.2577C21.773 31.2577 21.773 31.2673 21.7826 31.2673C21.869 31.3825 21.9746 31.4881 22.0514 31.7185C22.1282 31.9489 22.0994 32.0833 22.109 32.2273C22.109 32.2753 22.109 32.3233 22.1282 32.3713C22.1954 32.5825 22.4258 32.6977 22.637 32.6305C22.6946 32.6113 22.7426 32.5825 22.781 32.5441C22.8002 32.5345 22.8194 32.5153 22.829 32.4961C22.829 32.4961 23.501 31.5745 23.5202 31.5361C23.549 31.4881 23.5202 31.4593 23.501 31.4305C23.4818 31.4017 23.4338 31.3345 23.4146 31.2769C23.3954 31.2289 23.3858 31.1521 23.3954 31.1041C23.405 31.0561 23.405 31.0177 23.3474 31.0081C23.2994 30.9985 22.5218 30.7393 22.2626 30.6625C22.1762 30.6241 22.0802 30.6145 21.9842 30.6433Z" fill="#ED3024"/>
<path d="M27.3603 18.6825L29.8275 17.8281C29.8275 17.8281 29.6163 18.8553 29.6739 19.6521C29.7507 20.6793 30.3459 21.4665 30.3459 21.4665L27.3027 22.5225L27.3603 18.6825Z" fill="#FFC758"/>
<path d="M30.3456 21.4724C30.3456 21.4724 29.808 20.6948 29.712 19.7924C29.6448 19.1204 29.712 18.5348 29.8272 17.8244C29.7216 18.2948 29.3184 19.6196 28.2048 20.8484C27.7536 21.3476 27.5616 21.7796 27.4752 22.0772L27.4272 16.25C27.4272 16.25 26.8416 16.4612 26.784 16.4708C26.7072 16.49 26.688 16.538 26.6784 16.5572C26.6784 16.5956 26.6496 16.6148 26.6112 16.6244C26.5632 16.6436 26.2272 16.7588 25.9872 16.8356C25.9488 16.8548 25.9584 16.8932 25.9872 16.8932C26.2656 16.8836 26.6688 16.8548 26.7072 16.8452C26.7648 16.8356 26.784 16.8068 26.7936 16.7684V16.7588C26.8032 16.7108 26.8416 16.682 26.8896 16.682C26.9184 16.682 27.1392 16.6532 27.2736 16.6436L27.216 22.9124H27.4944V22.4612L30.3456 21.4724Z" fill="#D4A11E"/>
<path d="M19.3819 22.6853C19.3819 22.6853 18.9211 22.3397 18.7963 21.7061C18.6715 21.0533 18.9979 20.6693 18.9979 20.6693L21.9931 19.6421C21.9931 19.6421 21.8107 20.2373 21.9835 20.9093C22.2043 21.7733 22.6651 22.3397 22.6651 22.3397C22.6651 22.3397 21.5707 22.1381 20.5051 22.2629C19.4875 22.4069 19.3819 22.6853 19.3819 22.6853ZM15.9355 21.9365C15.9355 21.9365 16.3099 20.9189 17.4043 19.8053C18.2299 18.9605 18.7771 18.7109 18.7771 18.7109C18.7771 18.7109 18.2971 19.4021 18.0955 20.5349C17.9707 21.2357 18.1051 22.1285 18.1051 22.1285C18.1051 22.1285 17.5483 22.0133 16.8955 21.9461C16.3579 21.8885 15.9355 21.9365 15.9355 21.9365Z" fill="#FFC758"/>
<path d="M18.7779 18.7108C18.7779 18.7108 18.3075 19.402 18.1059 20.5348C17.9811 21.2356 18.1155 22.1284 18.1155 22.1284C18.1155 22.1284 17.9715 22.0996 17.6547 22.0228C16.3107 21.7252 18.7779 18.7108 18.7779 18.7108ZM20.5347 19.5364L20.5059 16.8388H20.4963C20.4291 16.858 19.9107 17.0404 19.8531 17.0596C19.7859 17.0788 19.7475 17.1268 19.7475 17.146C19.7475 17.1844 19.7187 17.2036 19.6707 17.2132C19.6227 17.2324 19.2867 17.3476 19.0467 17.4244C19.0083 17.4436 19.0179 17.482 19.0563 17.482C19.3347 17.4628 19.7283 17.434 19.7763 17.434C19.8339 17.4244 19.8627 17.3956 19.8627 17.3572V17.3476C19.8723 17.2996 19.9107 17.2708 19.9587 17.2708C19.9875 17.2708 20.1987 17.242 20.3331 17.2324L20.3139 19.5364H20.5347ZM24.0291 17.1076H24.2403V14.5156C24.2403 14.5156 23.6547 14.7172 23.5971 14.7364C23.5203 14.7556 23.4915 14.8036 23.4915 14.8228C23.4915 14.8612 23.4627 14.8804 23.4243 14.89C23.3763 14.8996 23.0403 15.0244 22.8003 15.1012C22.7523 15.1204 22.7715 15.1588 22.8003 15.1588C23.0787 15.1492 23.4819 15.1108 23.5203 15.1108C23.5779 15.1012 23.5971 15.0724 23.6067 15.034V15.0244C23.6163 14.9764 23.6547 14.9476 23.7027 14.9476C23.7315 14.9476 23.9331 14.9188 24.0675 14.9092L24.0291 17.1076Z" fill="#D4A11E"/>
<path d="M23.5007 15.1184H23.5103C23.5679 15.1088 23.5871 15.08 23.5967 15.0416V15.032C23.6063 15.0032 23.6255 14.9744 23.6543 14.9648L23.5775 14.7344C23.5103 14.7536 23.4815 14.8016 23.4815 14.8208C23.4815 14.8496 23.4623 14.8688 23.4239 14.8784L23.5007 15.1184ZM19.7663 17.4416H19.7759C19.8335 17.432 19.8527 17.4032 19.8623 17.3648V17.3552C19.8719 17.3264 19.8911 17.2976 19.9199 17.288L19.8431 17.0576C19.7759 17.0768 19.7471 17.1248 19.7471 17.144C19.7471 17.1728 19.7279 17.192 19.6895 17.2016L19.7663 17.4416ZM26.6879 16.856H26.6975C26.7551 16.8464 26.7743 16.8176 26.7839 16.7792V16.7696C26.7935 16.7408 26.8127 16.712 26.8415 16.7024L26.7647 16.472C26.6975 16.4912 26.6687 16.5392 26.6687 16.5584C26.6687 16.5872 26.6495 16.6064 26.6111 16.6256L26.6879 16.856Z" fill="#FFC758"/>
<path d="M22.6652 22.3478C22.6652 22.3478 22.1852 21.647 21.9932 20.8982C21.83 20.255 21.9932 19.6406 21.9932 19.6406C21.9932 19.6406 21.6668 20.7446 20.9084 21.3398C20.3708 21.7622 19.0844 22.1462 19.382 22.6838C19.4204 22.607 19.5548 22.4726 20.0924 22.3478C20.1596 22.3286 20.2268 22.319 20.294 22.3094V23.2022H20.5724V22.271C21.5516 22.175 22.6652 22.3478 22.6652 22.3478Z" fill="#D4A11E"/>
<path d="M19.0748 20.4981C19.0748 20.4981 18.7292 20.2868 18.7676 19.6053C18.806 18.9044 19.1612 18.5973 19.1708 18.5781L21.5036 17.7812C21.5036 17.7812 21.3308 18.1269 21.4556 18.6549C21.5996 19.2981 22.0124 19.6532 22.0124 19.6532C22.0124 19.6532 20.8412 19.6725 19.7852 20.0277C19.2572 20.2005 19.0748 20.4981 19.0748 20.4981Z" fill="#FFC758"/>
<path d="M20.458 19.0154C21.13 18.4586 21.4948 17.7578 21.4948 17.7578C21.4948 17.7578 21.3988 18.209 21.4756 18.6026C21.6004 19.2842 22.0036 19.6394 22.0036 19.6394C22.0036 19.6394 21.0628 19.6586 20.026 19.937C19.354 20.129 19.1332 20.3978 19.0756 20.4842C18.8548 19.985 19.7668 19.5818 20.458 19.0154Z" fill="#D4A11E"/>
<path d="M23.1163 22.8651C23.1163 22.8651 22.4731 22.3755 22.3195 21.4827C22.1947 20.7723 22.6747 20.2539 22.6747 20.2539L26.3227 18.9963C26.3227 18.9963 26.1211 19.8027 26.3035 20.5707C26.5147 21.4443 27.3115 22.5195 27.3115 22.5195C27.3115 22.5195 25.7947 22.0875 24.4891 22.2507C23.2315 22.4139 23.1163 22.8651 23.1163 22.8651ZM22.3675 17.0859C22.3387 16.5291 22.7227 16.0971 22.7515 16.0683L25.3723 15.1562C25.3723 15.1562 25.1995 15.569 25.2475 15.9243C25.3243 16.5963 25.7083 16.9515 25.7083 16.9515C25.7083 16.9515 24.6811 16.8938 23.4715 17.3163C22.7995 17.5466 22.7323 17.8731 22.7323 17.8731C22.7323 17.8731 22.4059 17.7675 22.3675 17.0859Z" fill="#FFC758"/>
<path d="M24.4413 16.3755C24.9117 15.9627 25.363 15.1562 25.363 15.1562C25.363 15.1562 25.1901 15.569 25.2381 15.9243C25.3149 16.5963 25.699 16.9515 25.699 16.9515C25.699 16.9515 24.5949 16.9418 23.5197 17.3163C23.0589 17.4794 22.7709 17.7291 22.7325 17.8731C22.5693 17.3451 23.7981 16.9515 24.4413 16.3755Z" fill="#D4A11E"/>
<path d="M22.7418 20.1019C22.7418 20.1019 22.3674 19.6699 22.2906 18.9979C22.2138 18.2971 22.6362 18.0091 22.665 17.9995L25.689 16.9531C25.689 16.9531 25.6026 17.1739 25.6794 17.7883C25.7466 18.2971 26.2458 18.9979 26.2458 18.9979C26.2458 18.9979 24.633 19.0363 23.6346 19.4299C23.0202 19.6603 22.7418 20.1019 22.7418 20.1019Z" fill="#FFC758"/>
<path d="M24.7493 18.3547C25.4021 17.7883 25.6997 16.9531 25.6997 16.9531C25.6997 16.9531 25.6133 17.4331 25.6997 17.8075C25.8533 18.4699 26.3141 19.0171 26.3141 19.0171C26.3141 19.0171 24.9125 19.0363 23.8853 19.3819C23.2229 19.6027 22.8101 19.9963 22.7429 20.1115C22.6085 19.5451 24.0965 18.9115 24.7493 18.3547Z" fill="#D4A11E"/>
<path d="M27.3702 22.5808C27.3702 22.5808 26.5446 21.5152 26.3046 20.5744C26.151 19.9504 26.2662 19.2496 26.3142 19C26.2278 19.3264 25.8918 20.4016 25.0854 21.1408C24.3174 21.8512 22.791 22.1968 23.1174 22.8688C23.175 22.7536 23.3478 22.504 23.9718 22.3504L23.9622 23.2144H24.2502V22.2928C25.6038 22.0912 27.3702 22.5808 27.3702 22.5808Z" fill="#D4A11E"/>
<path fill-rule="evenodd" clip-rule="evenodd" d="M28.7715 24.5857C28.9635 24.5473 29.1555 24.5089 29.4339 24.4321C29.4147 24.4225 29.4051 24.4129 29.3859 24.3937C29.0787 24.0481 29.1363 23.6929 29.3187 23.5105C30.0003 22.8673 29.9907 22.4065 29.9907 22.4065C29.9907 22.4065 28.3299 22.7521 26.1603 22.8577C26.0163 22.8673 25.5075 23.0881 25.3635 23.0881C25.0659 23.0977 24.7587 23.1073 24.4419 23.1073C20.3331 23.1361 19.1811 22.8577 17.8275 22.5985C16.4643 22.3393 15.8595 22.0609 15.8595 22.0609L15.8115 22.2049C15.8115 22.2049 16.8867 22.6177 17.6643 23.0017C17.8275 23.0785 18.4707 24.0481 18.6819 24.3745H13.7955C13.5267 18.7777 14.6115 14.1889 14.6115 14.1889C14.6115 14.1889 18.3555 13.3921 23.9715 13.3921V12.7969C18.0003 12.7969 14.0259 13.6417 14.0259 13.6417C14.0259 13.6417 12.2883 19.7569 13.2099 27.0433C13.5939 30.0769 16.1091 35.7601 23.9427 38.3905L24.2883 37.9105L23.9427 37.4305C16.5603 34.9537 14.4099 29.9617 14.0355 27.1009C13.9491 26.4673 13.8915 25.8433 13.8435 25.2193H23.9715V24.3649H18.7683C18.8835 23.9905 19.2483 23.8945 19.6995 24.0097C20.1699 24.1249 20.6307 24.2401 21.0819 24.2209C22.1955 24.1633 22.0323 23.8657 22.1283 23.8753C23.2707 23.9425 23.7027 24.2209 24.7107 24.2113C25.6227 24.1921 25.9395 23.9617 26.0259 23.9521C27.1395 23.9425 27.5619 24.4513 28.6755 24.5473C28.7139 24.5857 28.7427 24.5857 28.7715 24.5857Z" fill="#FFC758"/>
<path fill-rule="evenodd" clip-rule="evenodd" d="M33.8882 13.6807C33.8882 13.6807 29.933 12.8359 23.9618 12.8359V13.4311C29.5874 13.4311 33.3122 14.2279 33.3122 14.2279C33.3122 14.2279 34.397 18.8167 34.1282 24.4135H29.2226C28.829 24.0391 29.0594 23.5399 29.1842 23.4247C29.7602 22.9063 29.7602 22.5607 29.7602 22.5607C29.7602 22.5607 28.4354 22.8871 26.2562 22.9831C26.1122 22.9927 25.5074 23.2615 25.3538 23.2711C25.0562 23.2807 24.6242 23.2903 24.3074 23.2903C21.4658 23.2903 20.0834 23.2327 17.6162 22.7047C17.6642 22.7623 17.6834 22.7911 17.7314 22.8487C17.741 22.8679 18.8066 23.1463 18.8258 23.1655C18.989 23.3863 19.2002 23.5399 19.4594 23.6743C19.853 23.8855 20.4386 24.0679 20.9282 24.0967C22.0418 24.1639 21.8306 23.7511 21.9362 23.7511C23.0786 23.7319 23.8082 24.1447 24.8066 24.1255C25.7186 24.1063 25.7474 23.8279 25.8338 23.8183C26.7362 23.7703 27.6482 24.1639 28.4354 24.4135H23.9522V25.2679H34.061C34.013 25.8823 33.9554 26.5159 33.869 27.1495C33.4946 30.0103 31.3346 35.0023 23.9522 37.4791V38.4391C31.7954 35.8087 34.3106 30.1255 34.6946 27.0919C35.6162 19.7959 33.8882 13.6807 33.8882 13.6807Z" fill="#D4A11E"/>
<path d="M5.64453 16.3096L6.05733 15.5321L7.91013 15.3976L6.96933 13.7944L7.38213 13.0169L10.6749 14.7544L10.3005 15.4745L8.15013 14.3416L9.07173 16.0024L9.06213 16.0216L7.18053 16.2136L9.32133 17.3369L8.94693 18.0472L5.64453 16.3096ZM9.41733 10.4633L9.93573 9.91605L13.7565 11.3273L13.1709 11.9513L12.3261 11.6248L11.2509 12.7673L11.6253 13.5833L11.0493 14.1881L9.41733 10.4633ZM11.6061 11.3368L10.3869 10.8664L10.9245 12.0568L11.6061 11.3368ZM12.3645 7.74645L13.0173 7.36245L15.6957 8.40885L14.5053 6.45045L15.1965 6.03765L17.1261 9.21525L16.5309 9.58005L13.7661 8.48565L14.9853 10.5113L14.3037 10.9337L12.3645 7.74645ZM17.3661 7.10325V7.09365C17.0685 6.07605 17.5965 5.02005 18.7005 4.70325C19.3725 4.51125 19.8429 4.61685 20.2653 4.84725L19.9293 5.56725C19.5837 5.39445 19.2573 5.32725 18.9021 5.42325C18.2973 5.59605 18.0093 6.22005 18.1821 6.83445V6.84405C18.3549 7.45845 18.9309 7.84245 19.5453 7.66965C19.9581 7.55445 20.1597 7.31445 20.3613 6.97845L21.0045 7.34325C20.7549 7.84245 20.4093 8.20725 19.7181 8.40885C18.6813 8.71605 17.6637 8.13045 17.3661 7.10325ZM21.8301 4.11765L22.6461 4.09845L22.6845 5.56725L24.1917 5.52885L24.1629 4.06005L24.9789 4.03125L25.0749 7.75605L24.2493 7.77525L24.2109 6.28725L22.7037 6.32565L22.7421 7.81365L21.9261 7.83285L21.8301 4.11765ZM29.7981 8.26485L30.4797 7.93845C30.6621 8.33205 30.9117 8.63925 31.2957 8.81205C31.6029 8.95605 31.8429 8.91765 31.9293 8.71605V8.70645C32.0157 8.51445 31.9485 8.37045 31.4493 7.95765C30.8541 7.46805 30.4989 7.07445 30.8061 6.40245V6.39285C31.0941 5.77845 31.7661 5.60565 32.4573 5.92245C32.9469 6.15285 33.3021 6.49845 33.5133 6.93045L32.8701 7.31445C32.6685 6.96885 32.4285 6.70965 32.1405 6.57525C31.8621 6.44085 31.6509 6.50805 31.5741 6.67125V6.68085C31.4685 6.90165 31.5837 7.04565 32.1021 7.45845C32.7069 7.95765 32.9757 8.38005 32.7069 8.96565V8.97525C32.3997 9.64725 31.7085 9.79125 30.9789 9.44565C30.4701 9.23445 30.0381 8.81205 29.7981 8.26485ZM35.2317 8.47605L34.3293 7.79445L34.7805 7.18965L37.2381 9.06165L36.7773 9.66645L35.8749 8.97525L34.0797 11.3368L33.4269 10.8377L35.2317 8.47605ZM41.1165 13.7656L41.8845 15.2824C42.0957 15.7049 42.1437 16.0985 42.0381 16.4249C41.9421 16.7033 41.7309 16.9337 41.4237 17.0969H41.4141C40.8765 17.3657 40.3965 17.2505 40.0221 16.9049L39.2445 18.3161L38.8125 17.4616L39.5229 16.2136L39.2349 15.6376L38.1693 16.1753L37.8045 15.4456L41.1165 13.7656ZM40.2429 16.0504C40.4253 16.4057 40.7133 16.5113 40.9917 16.3769H41.0013C41.3181 16.2233 41.3661 15.9161 41.1837 15.5609L40.8189 14.8313L39.8685 15.3112L40.2429 16.0504ZM27.3117 6.61365L28.6845 6.91125L29.0685 6.24885L27.4653 5.90325L27.6285 5.16405L29.5773 5.58645L29.7309 4.86645L26.9853 4.27125L26.1981 7.91925L28.9629 8.51445L29.1261 7.80405L27.1485 7.37205L27.3117 6.61365ZM38.3613 10.1657L35.5005 12.5561L37.3245 14.7353L37.8813 14.2649L36.5853 12.7192L37.1901 12.2105L38.1021 13.3049L38.8413 13.0553L37.7469 11.7497L38.3229 11.2601L39.6093 12.7864L40.1661 12.3161L38.3613 10.1657ZM17.6829 41.9033V41.8937C17.6829 40.8185 18.4989 39.9352 19.6605 39.9352C20.3709 39.9352 20.8029 40.1753 21.1581 40.5209L20.6301 41.1353C20.3421 40.8665 20.0445 40.7033 19.6605 40.7033C19.0173 40.7033 18.5565 41.2313 18.5565 41.884V41.8937C18.5565 42.5465 19.0077 43.084 19.6605 43.084C20.0925 43.084 20.3613 42.9113 20.6589 42.6425L21.1869 43.18C20.7933 43.5928 20.3613 43.8616 19.6317 43.8616C18.5085 43.8521 17.6829 42.9977 17.6829 41.9033ZM21.9933 40.0025H22.8285V43.7945H21.9933V40.0025ZM24.7677 40.7705H23.6157V40.0025H26.7549V40.7705H25.6029V43.7945H24.7677V40.7705ZM28.5597 42.2969L27.1005 40.0025H28.0701L28.9725 41.5192L29.8941 40.0025H30.8445L29.3853 42.2776V43.7849H28.5501V42.2969H28.5597Z" fill="#00285D"/>
</g>
<defs>
<clipPath id="clip0_6188_143882">
<rect width="48" height="48" fill="white"/>
</clipPath>
</defs>
</svg>
