<svg width="40" height="40" viewBox="0 0 40 40" fill="none" xmlns="http://www.w3.org/2000/svg">
<path d="M20 0.5C30.7696 0.5 39.5 9.23045 39.5 20C39.5 30.7696 30.7696 39.5 20 39.5C9.23045 39.5 0.5 30.7696 0.5 20C0.5 9.23045 9.23045 0.5 20 0.5Z" fill="url(#paint0_linear_6188_143881)"/>
<path d="M20 0.5C30.7696 0.5 39.5 9.23045 39.5 20C39.5 30.7696 30.7696 39.5 20 39.5C9.23045 39.5 0.5 30.7696 0.5 20C0.5 9.23045 9.23045 0.5 20 0.5Z" stroke="url(#paint1_linear_6188_143881)"/>
<path fill-rule="evenodd" clip-rule="evenodd" d="M14.667 13.3307V11.9974C14.667 10.5829 15.2289 9.22635 16.2291 8.22616C17.2293 7.22597 18.5858 6.66406 20.0003 6.66406C21.4148 6.66406 22.7714 7.22597 23.7716 8.22616C24.7718 9.22635 25.3337 10.5829 25.3337 11.9974V13.3307H27.5604C28.1371 13.3307 28.7069 13.4553 29.2309 13.6961C29.755 13.937 30.2208 14.2882 30.5963 14.7259C30.9719 15.1636 31.2484 15.6774 31.4068 16.2319C31.5653 16.7864 31.6019 17.3689 31.5142 17.9389L29.8409 28.8083C29.6471 30.0676 29.0089 31.2161 28.0418 32.0456C27.0747 32.8751 25.8421 33.331 24.568 33.3307H15.4323C14.1584 33.3307 12.9265 32.8746 11.9597 32.045C10.9929 31.2155 10.3549 30.0671 10.1612 28.8081L8.48788 17.9387C8.40022 17.3687 8.43686 16.7864 8.59529 16.2319C8.75373 15.6774 9.03021 15.1636 9.40578 14.7259C9.78134 14.2882 10.2471 13.937 10.7712 13.6961C11.2952 13.4553 11.865 13.3307 12.4417 13.3307H14.667ZM18.1147 10.1118C18.6148 9.61168 19.2931 9.33073 20.0003 9.33073C20.7076 9.33073 21.3858 9.61168 21.8859 10.1118C22.386 10.6119 22.667 11.2902 22.667 11.9974V13.3307H17.3337V11.9974C17.3337 11.2902 17.6146 10.6119 18.1147 10.1118Z" fill="#001838"/>
<path d="M19.9996 27.1C17.8996 27.1 16.4696 25.45 16.4696 23.03C16.4696 20.61 17.8996 18.95 19.9996 18.95C22.0896 18.95 23.5196 20.61 23.5196 23.03C23.5196 25.45 22.0896 27.1 19.9996 27.1ZM19.9996 25.83C21.0896 25.83 21.6996 24.86 21.6996 23.03C21.6996 21.2 21.0896 20.22 19.9996 20.22C18.9096 20.22 18.2896 21.2 18.2896 23.03C18.2896 24.86 18.9096 25.83 19.9996 25.83Z" fill="white"/>
<defs>
<linearGradient id="paint0_linear_6188_143881" x1="0" y1="0" x2="35.6084" y2="43.5877" gradientUnits="userSpaceOnUse">
<stop stop-color="white" stop-opacity="0.4"/>
<stop offset="1" stop-color="white" stop-opacity="0.16"/>
</linearGradient>
<linearGradient id="paint1_linear_6188_143881" x1="0" y1="0" x2="35.6084" y2="43.5877" gradientUnits="userSpaceOnUse">
<stop stop-color="white" stop-opacity="0.64"/>
<stop offset="0.648215" stop-color="white" stop-opacity="0.380714"/>
<stop offset="1" stop-color="white" stop-opacity="0.24"/>
</linearGradient>
</defs>
</svg>
